<?xml version="1.0" standalone="no"?>
<!DOCTYPE svg PUBLIC "-//W3C//DTD SVG 20010904//EN"
 "http://www.w3.org/TR/2001/REC-SVG-20010904/DTD/svg10.dtd">
<svg version="1.0" xmlns="http://www.w3.org/2000/svg"
 width="400.000000pt" height="400.000000pt" viewBox="0 0 400.000000 400.000000"
 preserveAspectRatio="xMidYMid meet">
<metadata>
Created by potrace 1.11, written by Peter Selinger 2001-2013
</metadata>
<g transform="translate(0.000000,400.000000) scale(0.100000,-0.100000)"
fill="#000000" stroke="none">
<path d="M1050 3832 c0 -6 6 -12 13 -15 7 -3 14 -21 15 -40 2 -27 -3 -39 -20
-51 -37 -26 -52 -2 -57 87 -1 11 -9 17 -26 17 -27 0 -34 -14 -12 -23 8 -3 13
-16 12 -29 -3 -36 14 -75 35 -81 10 -3 30 1 44 9 14 7 26 9 26 4 0 -5 12 -6
27 -4 32 6 44 14 20 14 -12 0 -17 9 -18 28 -5 90 -3 87 -32 90 -15 2 -27 -1
-27 -6z"/>
<path d="M834 3800 c-12 -5 -25 -13 -29 -19 -3 -6 -11 -9 -16 -5 -6 3 -22 3
-37 -1 -24 -6 -25 -8 -8 -14 26 -10 51 -90 30 -98 -31 -11 -2 -20 36 -11 36
10 46 23 17 23 -17 0 -30 75 -15 92 21 26 52 11 64 -32 8 -28 8 -42 0 -47 -18
-12 -1 -18 32 -12 31 6 45 24 19 24 -7 0 -17 19 -23 41 -10 48 -38 71 -70 59z"/>
<path d="M630 3785 c0 -8 7 -15 15 -15 8 0 15 7 15 15 0 8 -7 15 -15 15 -8 0
-15 -7 -15 -15z"/>
<path d="M518 3729 c-21 -12 -24 -31 -4 -23 7 3 20 -5 28 -18 14 -22 14 -23
-11 -25 -30 -1 -61 -35 -56 -61 2 -9 4 -20 4 -24 2 -19 43 -48 67 -48 14 0 39
11 56 25 16 14 36 25 44 25 8 0 14 7 14 15 0 8 -6 12 -14 9 -9 -4 -29 19 -57
65 -24 39 -46 71 -49 71 -3 -1 -13 -5 -22 -11z m54 -96 c23 -20 24 -71 2 -80
-35 -13 -81 45 -63 79 12 22 37 23 61 1z"/>
<path d="M643 3733 c-7 -2 -13 -9 -13 -15 0 -6 6 -8 14 -5 10 4 20 -8 32 -38
14 -38 15 -47 3 -62 -13 -15 -12 -16 6 -9 11 4 32 13 47 18 16 5 26 14 23 19
-3 4 -12 6 -19 3 -8 -3 -20 13 -34 46 -20 47 -30 55 -59 43z"/>
<path d="M1085 3633 c-239 -50 -389 -122 -531 -255 -304 -285 -360 -688 -164
-1183 107 -272 343 -624 644 -964 129 -145 518 -539 727 -736 228 -215 342
-321 355 -328 22 -12 44 -1 99 50 414 385 605 573 605 596 0 11 -7 28 -16 38
-26 28 -54 10 -192 -125 -70 -68 -143 -138 -162 -156 -19 -18 -93 -87 -163
-154 -71 -66 -136 -125 -144 -129 -10 -6 -21 -3 -32 10 -10 10 -76 73 -147
139 -268 252 -434 415 -629 616 -163 167 -204 213 -340 374 -85 101 -88 105
-180 228 -291 391 -444 764 -445 1082 -1 441 373 800 840 806 154 2 242 -10
350 -50 190 -69 357 -236 505 -506 42 -75 47 -80 79 -72 16 4 43 39 91 120
221 375 456 519 834 509 354 -8 684 -236 791 -547 23 -67 39 -153 41 -216 3
-70 45 -102 84 -63 28 27 9 192 -35 311 -99 267 -318 475 -590 561 -224 72
-506 65 -707 -17 -185 -75 -357 -239 -487 -464 l-28 -48 -78 118 c-161 243
-332 375 -563 433 -62 16 -120 22 -237 24 -85 1 -164 0 -175 -2z"/>
<path d="M360 3546 c-12 -14 -22 -37 -22 -51 0 -30 29 -65 58 -69 51 -8 104
57 82 100 -27 50 -81 59 -118 20z m84 -29 c16 -21 18 -32 10 -45 -17 -26 -53
-27 -75 -1 -24 27 -24 55 -1 68 25 15 42 10 66 -22z"/>
<path d="M272 3458 c-7 -7 -12 -21 -12 -32 0 -10 -3 -16 -7 -13 -7 7 -43 -21
-43 -34 0 -4 8 -5 18 -3 24 6 79 -46 74 -71 -2 -16 3 -14 28 13 31 34 43 65
15 42 -16 -13 -34 -5 -62 29 -19 22 -17 52 3 44 9 -3 20 0 24 8 17 26 -14 41
-38 17z"/>
<path d="M115 3213 c-54 -53 -28 -133 43 -133 30 0 61 31 68 67 12 60 -69 108
-111 66z m76 -32 c21 -16 22 -22 11 -45 -14 -32 -53 -35 -82 -6 -24 24 -25 34
-4 54 21 21 47 20 75 -3z"/>
<path d="M45 3061 c-3 -12 -3 -26 1 -32 3 -6 2 -14 -3 -18 -14 -8 -26 -61 -14
-61 5 0 11 6 14 14 9 22 86 -1 97 -28 6 -18 9 -15 20 22 14 45 8 66 -13 40
-11 -15 -16 -15 -49 -2 -37 16 -61 57 -30 52 22 -4 22 26 0 30 -9 2 -19 -5
-23 -17z"/>
<path d="M26 2894 c-9 -8 -16 -18 -17 -22 0 -4 -2 -33 -4 -66 -4 -56 -4 -58
14 -42 10 9 20 14 22 12 2 -2 31 -6 64 -7 40 -2 64 -8 72 -18 7 -9 13 -11 14
-6 6 57 6 76 -1 80 -4 3 -10 -5 -13 -16 -4 -14 -12 -19 -24 -17 -10 2 -16 11
-14 19 9 32 2 71 -15 84 -25 19 -79 19 -98 -1z m71 -20 c47 -13 34 -74 -17
-74 -47 0 -75 41 -48 68 13 13 31 15 65 6z"/>
<path d="M1815 2710 c-110 -48 -182 -180 -161 -293 9 -49 60 -120 101 -143 41
-22 43 -33 11 -71 -56 -67 -109 -205 -137 -353 -6 -36 -19 -79 -29 -95 -9 -17
-20 -43 -23 -58 -10 -39 8 -107 36 -135 21 -21 31 -23 61 -18 40 8 46 27 21
63 -8 11 -20 34 -25 49 -11 27 -10 27 8 11 44 -40 50 -7 12 68 -11 22 -16 48
-14 68 16 115 49 223 86 282 19 30 19 29 15 -190 -2 -121 -7 -232 -11 -248
-13 -54 -29 -271 -35 -484 -1 -30 -3 -32 -26 -23 -14 5 -30 7 -37 5 -7 -2 -26
-7 -41 -9 -78 -13 -162 -55 -145 -71 5 -6 299 -8 303 -3 1 2 5 68 9 148 3 80
7 156 10 170 2 14 4 34 5 44 0 11 3 17 6 14 8 -8 20 -175 19 -280 l0 -98 153
0 c84 0 153 4 153 8 0 32 -117 74 -201 74 l-49 -1 -1 132 c-1 73 -3 141 -4
152 -1 11 -5 61 -9 110 -6 84 -13 143 -22 190 -2 11 -7 34 -10 50 -8 45 -13
365 -5 365 12 0 105 -61 135 -89 15 -14 53 -57 84 -95 42 -53 56 -78 58 -107
3 -55 13 -77 35 -84 14 -5 19 -15 19 -46 0 -37 1 -39 33 -39 18 0 49 -11 70
-26 39 -26 99 -34 161 -21 l29 6 -6 -90 c-4 -50 -9 -93 -11 -97 -4 -7 -14
-151 -17 -265 -2 -52 -5 -58 -23 -56 -47 5 -96 -24 -96 -55 0 -3 34 -6 75 -6
l75 0 1 65 c1 36 3 79 4 95 1 17 3 42 5 58 l2 27 8 -26 c4 -14 8 -68 9 -120 1
-51 4 -95 6 -97 6 -6 156 -4 162 1 2 3 0 14 -6 25 -11 20 -83 44 -107 35 -11
-4 -14 6 -15 43 0 27 -2 65 -4 84 -2 19 -6 69 -9 110 -4 41 -8 87 -11 102 -3
14 -7 56 -9 93 l-4 66 52 -2 c81 -2 91 0 130 26 46 31 57 31 113 -2 37 -22 57
-26 109 -25 l64 1 0 -58 c0 -45 -7 -75 -30 -124 -17 -36 -33 -81 -37 -100 -5
-32 -4 -34 18 -30 l24 4 -3 -93 -3 -94 -32 -1 c-64 -2 -121 -42 -89 -62 9 -5
121 -7 153 -2 3 1 6 49 7 107 1 58 6 113 12 122 10 18 12 -8 14 -160 l0 -68
78 0 c43 0 78 4 78 8 0 22 -52 55 -85 55 l-35 0 -1 54 c-1 29 -2 70 -3 91 -1
34 1 37 31 42 l32 5 -39 80 c-41 84 -60 163 -50 205 4 14 13 24 21 22 51 -12
119 -4 160 20 31 18 50 23 65 18 30 -12 48 3 40 33 -4 19 -1 29 13 40 27 18
44 65 37 102 -6 30 17 71 99 179 32 43 142 129 155 121 15 -9 1 -125 -41 -333
-30 -149 -38 -205 -65 -464 -4 -38 -3 -38 34 -38 l37 0 -3 -86 -4 -86 -25 5
c-57 11 -223 -40 -223 -69 0 -15 67 -21 211 -16 l96 3 0 87 c0 155 2 172 17
172 24 0 26 -13 27 -139 l0 -121 155 0 c93 0 154 4 154 10 0 29 -162 81 -217
70 l-33 -7 -1 56 c0 31 -2 72 -3 93 -2 35 -1 36 37 42 42 7 41 5 22 106 -10
52 -15 86 -21 135 -3 28 -25 153 -50 280 -25 126 -44 243 -42 260 3 28 5 26
42 -40 39 -68 54 -111 80 -231 12 -55 11 -64 -5 -95 -31 -59 -18 -115 15 -67
24 34 19 3 -9 -51 -28 -56 -22 -68 34 -67 50 1 75 40 76 115 0 46 -5 66 -22
89 -12 17 -29 61 -38 98 -34 150 -79 257 -136 326 l-40 47 22 18 c11 10 40 37
64 59 152 147 56 424 -147 424 -88 0 -173 -73 -204 -175 -21 -71 -13 -163 19
-218 32 -54 94 -95 153 -101 21 -3 41 -5 44 -5 3 -1 -18 -14 -47 -31 -63 -36
-136 -110 -213 -215 -32 -44 -73 -88 -90 -99 -38 -22 -62 -73 -65 -141 -1 -27
-3 -53 -3 -56 -3 -10 -52 -22 -95 -25 l-38 -2 35 36 c65 64 73 159 21 228 -65
85 -175 76 -233 -19 -42 -68 -36 -166 14 -212 31 -29 30 -35 -3 -35 -48 0 -96
31 -105 68 -12 46 -51 63 -79 35 -18 -17 -25 -34 -28 -65 -2 -19 -100 -46
-121 -33 -6 3 3 17 19 30 106 90 10 311 -125 289 -52 -8 -82 -30 -106 -78 -36
-70 -18 -171 38 -215 13 -10 20 -21 17 -25 -11 -10 -52 -7 -88 8 -33 14 -35
18 -35 62 0 68 -19 122 -53 147 -40 30 -80 69 -162 161 -41 45 -100 96 -142
123 -40 26 -73 52 -73 58 0 7 22 15 51 18 124 15 210 116 210 248 1 95 -56
190 -131 221 -42 17 -112 16 -155 -2z m1816 -51 c73 -25 121 -92 121 -173 2
-110 -81 -194 -179 -183 -93 10 -161 95 -149 184 11 83 65 152 135 173 36 11
34 11 72 -1z m-1688 -8 c66 -25 117 -131 99 -202 -35 -138 -170 -189 -271
-103 -47 41 -65 88 -59 155 11 108 133 187 231 150z m581 -732 c53 -41 69
-104 42 -158 -44 -84 -155 -82 -196 4 -28 58 -13 122 39 162 25 20 85 15 115
-8z m535 -4 c84 -72 33 -215 -78 -215 -67 0 -120 84 -96 154 7 21 15 39 17 40
1 1 16 12 32 24 39 30 87 28 125 -3z"/>
<path d="M125 2630 c3 -6 0 -12 -7 -14 -7 -2 -32 -9 -54 -15 -49 -13 -59 -37
-34 -79 11 -17 16 -40 13 -55 -3 -16 1 -37 11 -52 9 -14 12 -25 8 -25 -5 0 -7
-11 -4 -25 5 -26 22 -35 22 -12 0 8 19 18 45 24 40 9 47 8 55 -8 19 -34 11
-45 -44 -62 -46 -15 -53 -21 -49 -37 7 -25 23 -37 23 -16 0 17 60 39 83 30 17
-6 32 -39 23 -52 -3 -5 -24 -15 -48 -22 -57 -18 -59 -21 -43 -50 9 -16 14 -19
15 -9 0 8 21 24 50 36 42 18 50 26 50 47 0 14 -9 35 -20 46 -11 11 -16 20 -10
20 6 0 6 10 -1 28 -6 15 -13 38 -15 52 -2 14 -7 36 -10 50 -6 24 -6 24 -14 4
-15 -38 -94 -39 -106 -2 -8 25 5 38 48 47 24 5 36 3 45 -8 11 -14 12 -12 12 9
-1 14 -5 36 -9 50 -8 24 -11 24 -14 -2 -2 -18 -63 -31 -86 -18 -22 12 -27 45
-8 56 28 18 73 20 85 5 11 -14 12 -14 13 4 0 31 -11 65 -22 65 -5 0 -6 -5 -3
-10z"/>
<path d="M150 2105 c0 -14 7 -28 15 -31 8 -4 15 -14 15 -24 0 -26 11 -50 22
-50 6 0 7 7 4 16 -7 19 73 59 88 44 21 -21 24 -8 9 30 -9 22 -20 40 -26 40 -5
0 -7 -7 -3 -15 7 -20 -48 -49 -80 -41 -23 6 -34 26 -14 26 6 0 10 7 10 15 0 8
-9 15 -20 15 -15 0 -20 -7 -20 -25z"/>
<path d="M297 2023 c-13 -13 -7 -21 13 -16 37 10 22 -26 -19 -47 l-40 -20 -17
23 -16 22 6 -28 c5 -20 2 -29 -9 -33 -23 -9 -19 -33 5 -27 11 3 27 -1 36 -8
13 -11 15 -10 12 5 -2 13 9 26 36 41 49 28 59 46 40 73 -15 22 -35 28 -47 15z"/>
<path d="M373 1915 c4 -9 -7 -22 -33 -36 -21 -12 -41 -28 -44 -36 -8 -20 14
-62 37 -69 13 -4 16 -9 8 -13 -9 -6 -6 -15 8 -32 19 -22 20 -23 21 -4 0 27 72
69 89 52 17 -17 14 9 -5 38 -18 27 -37 34 -28 11 8 -21 -63 -53 -85 -39 -31
19 -24 47 18 69 27 15 41 18 44 10 2 -6 8 -8 12 -4 8 8 -25 68 -38 68 -5 0 -7
-7 -4 -15z"/>
<path d="M463 1743 c-7 -3 -13 -9 -13 -15 0 -6 6 -8 14 -5 19 8 56 -20 56 -42
0 -10 -6 -24 -14 -30 -12 -10 -20 -5 -42 28 -29 44 -34 47 -52 29 -26 -26 -12
-82 27 -102 37 -20 84 1 99 42 9 25 7 35 -11 60 -22 32 -42 42 -64 35z m7
-111 c0 -18 -30 -11 -43 9 -6 9 -7 25 -3 35 7 18 9 17 26 -6 11 -14 20 -31 20
-38z"/>
<path d="M558 1613 c-27 -7 -21 -20 8 -20 48 0 59 -50 18 -82 -29 -23 -55 -16
-74 19 -8 16 -8 20 4 20 8 0 18 5 22 11 9 16 -18 30 -33 17 -36 -29 7 -108 58
-108 44 0 80 42 69 80 -14 50 -38 70 -72 63z"/>
<path d="M716 1416 c3 -8 -13 -29 -37 -50 l-43 -36 23 -23 c17 -16 22 -17 18
-6 -4 11 7 28 30 48 l36 32 21 -20 20 -21 -37 -38 c-33 -34 -37 -42 -28 -64 5
-15 19 -29 30 -33 12 -3 21 -12 21 -19 0 -7 10 -21 21 -32 21 -19 22 -19 15 1
-4 15 3 27 28 48 37 28 61 28 71 -3 4 -13 -11 -34 -54 -75 -59 -56 -60 -58
-43 -80 9 -13 21 -21 25 -18 4 3 3 10 -2 17 -8 9 0 22 27 47 77 71 83 74 91
60 5 -7 11 -9 14 -5 2 5 -24 41 -60 79 -38 41 -62 61 -58 48 4 -16 -1 -26 -25
-43 -34 -24 -58 -23 -74 3 -9 14 -5 23 21 47 19 18 38 28 47 24 26 -10 18 13
-14 40 -17 14 -31 29 -32 33 0 4 -8 18 -18 31 -20 24 -42 30 -34 8z"/>
<path d="M585 1310 c-6 -10 7 -20 35 -25 32 -6 32 12 0 23 -16 6 -32 7 -35 2z"/>
<path d="M955 1120 c-3 -5 -3 -15 0 -21 4 -5 -2 -18 -12 -27 -28 -25 -34 -47
-18 -69 22 -27 18 -33 -16 -26 -25 5 -31 3 -27 -8 5 -15 45 -21 53 -8 3 4 21
5 40 2 28 -4 35 -2 35 10 0 21 -18 31 -34 18 -14 -12 -36 4 -36 25 0 24 22 26
51 5 33 -25 67 -27 76 -5 8 22 -17 64 -44 70 -12 3 -22 9 -21 13 2 21 -4 31
-21 31 -11 0 -23 -4 -26 -10z m25 -10 c0 -5 -5 -10 -11 -10 -5 0 -7 5 -4 10 3
6 8 10 11 10 2 0 4 -4 4 -10z m55 -50 c4 -6 4 -18 1 -26 -5 -13 -9 -13 -36 1
-17 9 -28 20 -25 25 8 13 52 13 60 0z"/>
<path d="M1086 1012 c-3 -6 -2 -13 4 -17 6 -4 -7 -22 -30 -42 -44 -40 -47 -48
-26 -69 19 -19 30 -18 22 2 -8 21 52 76 76 68 25 -8 23 0 -11 36 -16 18 -31
28 -35 22z"/>
<path d="M1153 922 c-13 -2 -23 -8 -23 -14 0 -6 10 -8 24 -4 16 4 29 -1 42
-15 17 -18 17 -23 4 -46 -22 -38 -56 -47 -81 -22 l-21 21 22 15 c15 10 18 19
12 25 -18 18 -42 0 -42 -31 0 -34 39 -71 75 -71 25 0 74 44 71 63 -10 54 -43
85 -83 79z"/>
<path d="M970 871 c0 -5 6 -14 14 -20 16 -13 32 2 21 19 -8 12 -35 13 -35 1z"/>
<path d="M1224 787 c-22 -19 -25 -28 -19 -55 7 -34 47 -72 75 -72 10 0 29 9
44 21 35 28 35 72 0 104 -34 31 -65 32 -100 2z m91 -17 c20 -22 9 -53 -24 -73
-22 -13 -31 -14 -43 -4 -26 20 -27 41 -1 68 27 30 47 32 68 9z"/>
<path d="M1355 676 c-28 -28 -26 -41 16 -100 29 -40 29 -66 -1 -66 -39 0 -69
55 -50 90 14 26 -3 27 -30 0 -21 -21 -28 -46 -10 -35 6 3 14 -4 19 -17 19 -50
72 -76 107 -53 32 21 30 42 -7 98 -33 50 -33 77 0 77 31 0 64 -49 58 -87 -7
-40 2 -42 31 -8 25 28 28 39 10 32 -7 -2 -22 12 -33 31 -11 21 -34 41 -53 49
-30 12 -34 12 -57 -11z"/>
</g>
</svg>
